Coordinates
version=1
nRows=15
nColumns=34
inDegrees=yes

Units are S.I. units (second, meters, Newtons, ...)
If the header above contains a line with 'inDegrees', this indicates whether rotational values are in degrees (yes) or radians (no).

endheader
time	pelvis_tilt	pelvis_list	pelvis_rotation	pelvis_tx	pelvis_ty	pelvis_tz	hip_flexion_r	hip_adduction_r	hip_rotation_r	knee_angle_r	ankle_angle_r	subtalar_angle_r	mtp_angle_r	hip_flexion_l	hip_adduction_l	hip_rotation_l	knee_angle_l	ankle_angle_l	subtalar_angle_l	mtp_angle_l	lumbar_extension	lumbar_bending	lumbar_rotation	arm_flex_r	arm_add_r	arm_rot_r	elbow_flex_r	pro_sup_r	arm_flex_l	arm_add_l	arm_rot_l	elbow_flex_l	pro_sup_l
      0.00000000	     -6.77369980	     -8.49147503	    185.00910379	      1.91054616	      1.07747089	     -0.55202517	     20.61224535	     -5.31549006	      8.91992812	      8.23347714	    -17.31280989	     -5.59722723	      0.00000000	    -14.76714970	     11.73241329	      6.21304684	     72.41538104	     -8.02191136	    -33.86354260	      0.00000000	    -19.84171211	     -6.79440564	    -14.73788150	    -31.73055365	    -15.89109877	    -16.67458703	    112.42285312	    104.40445677	     16.11240225	    -26.13344842	     48.94806423	    112.71771318	     79.28035908
      0.00833330	     -7.14457745	     -7.71777916	    183.43505385	      1.90786288	      1.07213481	     -0.55574920	     21.06737394	     -5.02577809	      5.30039451	      9.77107071	    -17.69732242	     -2.62123910	      0.00000000	    -15.10519629	     10.65689249	      2.94180076	     78.67578342	    -13.95298263	    -28.23783465	      0.00000000	    -20.79757603	     -4.59545500	    -14.36333995	    -30.64166154	    -16.45796356	    -14.35245592	    114.19221732	    103.91180502	     11.01442901	    -27.29570515	     47.61326227	    113.58651622	     79.32120802
      0.01666670	     -7.01657523	     -7.99976726	    184.03775948	      1.90368080	      1.06174759	     -0.55602626	     21.21265755	     -4.96214431	      1.67875661	     12.14875523	    -17.93197589	     -4.54808538	      0.00000000	    -13.74748553	      9.91958971	      3.49715469	     83.99884658	    -18.51629178	    -25.99757991	      0.00000000	    -19.51432632	     -4.49026727	    -14.16370232	    -30.33873306	    -17.03006017	    -13.45850744	    115.18485264	    103.55376139	      8.43433587	    -28.33679760	     48.64502373	    113.84617697	     79.24121414
      0.02500000	     -6.58829538	     -8.67172921	    184.67230306	      1.90077002	      1.05097074	     -0.55655447	     22.12583414	     -5.32464757	      0.31614317	     15.70234637	    -16.19218987	     -6.22071500	      0.00000000	    -11.60448001	     10.33641030	      4.13332935	     89.35902399	    -17.00546481	    -24.80900136	      0.00000000	    -18.62908074	     -5.15554753	    -15.49683719	    -27.58711805	    -18.65896944	    -10.61443403	    114.48176058	    100.94819892	      3.39407652	    -29.68651528	     47.32552008	    114.56670447	     78.60299249
      0.03333330	     -6.97245051	     -8.52378591	    185.38382434	      1.89938637	      1.04253502	     -0.55566010	     21.95224478	     -5.01991406	      0.06412202	     20.07766380	    -12.76400534	     -8.61422772	      0.00000000	     -9.67087096	     10.01265684	      4.69041761	     94.41614439	    -15.01117529	    -22.68522136	      0.00000000	    -19.36416409	     -4.28698469	    -14.81024185	    -26.65022223	    -19.32985244	    -11.10006807	    115.35311067	    100.61879981	      1.15334265	    -30.90561773	     48.72871449	    114.40577340	     78.81785439
      0.04166670	     -7.08050882	     -7.97771204	    185.97826097	      1.89849229	      1.03385143	     -0.55496287	     21.95124987	     -4.15158940	     -0.06427224	     24.37497596	     -9.00422803	    -10.81034972	      0.00000000	     -7.92093224	      9.10192671	      5.03983169	     97.96213557	    -13.44050896	    -21.28259050	      0.00000000	    -19.75321302	     -3.29104485	    -13.70576424	    -25.18405916	    -19.97369338	    -11.53443459	    114.56277878	    100.36212695	     -0.54024910	    -31.88230051	     49.78515739	    112.57611129	     79.13694857
      0.05000000	     -7.23262602	     -7.28779819	    186.23613956	      1.89819062	      1.03139289	     -0.55427883	     21.64257066	     -3.12593811	     -0.05849445	     28.04881346	     -5.23163545	    -12.55192955	      0.00000000	     -6.00188902	      8.17596262	      5.16265019	    100.90048752	    -12.41633878	    -20.33056865	      0.00000000	    -20.22736501	     -2.27138079	    -11.99233787	    -23.51756034	    -20.84005593	    -11.82679303	    112.84821939	    100.17320194	     -1.70645568	    -32.58483844	     50.05734575	    109.48759390	     79.52338067
      0.05833330	     -6.81519655	     -6.82816930	    186.42565856	      1.89856983	      1.02597655	     -0.55417971	     21.65191551	     -2.33662686	      0.06744606	     31.11147559	     -1.77576059	    -14.01238019	      0.00000000	     -3.18050661	      7.64177604	      5.30974171	    104.45320802	    -11.17987578	    -19.81661664	      0.00000000	    -20.11276664	     -1.62441750	    -10.38072964	    -21.58640024	    -21.90953311	    -11.32512996	    110.38877517	     99.85637692	     -2.77615626	    -33.08640844	     49.07071692	    104.95938728	     80.77556649
      0.06666670	     -6.45152774	     -6.16231918	    186.11416388	      1.89967429	      1.02212423	     -0.55454929	     21.27766611	     -1.25262793	      0.28267187	     33.26995697	      0.72112852	    -15.20859332	      0.00000000	      0.10285617	      6.93953902	      4.99812704	    107.70866441	     -9.59968943	    -19.24038067	      0.00000000	    -20.10137743	     -0.74377694	     -9.12332395	    -18.50849130	    -23.20672467	    -10.08667745	    107.97597731	     99.51126550	     -4.81858448	    -33.27136469	     45.74141849	    100.08404828	     83.33224903
      0.07500000	     -6.49748964	     -5.45010777	    185.53970912	      1.90213958	      1.01899630	     -0.55515123	     20.27076235	     -0.00176306	      0.73449226	     34.86135115	      2.77343509	    -16.52336815	      0.00000000	      3.21419523	      6.23366225	      4.64460209	    111.20851424	     -7.35473613	    -18.64683136	      0.00000000	    -21.02068841	      0.19650728	     -7.36734843	    -15.77587688	    -24.44364602	     -8.99232562	    105.85628052	     99.43084305	     -5.95467095	    -32.63709452	     41.98780295	     94.43339508	     85.13087132
      0.08333330	     -6.20906427	     -4.61140114	    184.55230595	      1.90508724	      1.01167040	     -0.55629468	     19.81786932	      1.41551413	      1.45042981	     36.61849495	      5.36292840	    -17.47906194	      0.00000000	      7.00559476	      5.32098962	      3.97360036	    114.55872245	     -4.79795933	    -17.71806254	      0.00000000	    -21.44974712	      1.01691158	     -7.03720770	    -10.57201025	    -26.45685177	     -4.63446743	    102.76425557	     99.30738282	    -10.42842634	    -31.82402672	     33.20801369	     92.36854591	     90.92335038
      0.09166670	     -5.91388321	     -3.62715948	    183.47887495	      1.90908932	      1.00608581	     -0.55738651	     19.25197618	      2.91768740	      1.97800376	     38.15366990	      7.42591231	    -18.32496897	      0.00000000	     11.00517093	      4.14472008	      3.58048808	    118.17873965	     -1.15592254	    -15.82559587	      0.00000000	    -22.03253281	      2.13367295	     -4.49008866	     -7.77586475	    -27.31450228	     -3.90721152	    102.46901944	     99.10861463	    -10.91723690	    -31.67879360	     29.59823589	     89.99237959	     92.10974846
      0.10000000	     -5.31121706	     -2.81403127	    182.09659504	      1.91356616	      1.00279429	     -0.55844925	     18.84861395	      4.20610858	      2.64026170	     39.42569676	      8.47563241	    -19.44108910	      0.00000000	     15.49704552	      3.01711105	      3.05129929	    121.56201387	      2.39513591	    -13.74087548	      0.00000000	    -22.25675383	      2.71312053	     -4.21549965	     -1.09272514	    -28.68194043	      1.75804078	     99.64049669	     98.50827209	    -15.46311820	    -30.33224109	     20.54812252	     90.07470133	     95.24939009
      0.10833330	     -4.79717076	     -1.85393443	    180.80624788	      1.91828817	      0.99976170	     -0.55940613	     18.09636776	      5.46440869	      2.88220142	     40.16137466	      9.38382208	    -20.08046620	      0.00000000	     19.98337712	      1.47769704	      2.74885392	    123.58295877	      6.15639678	    -10.70000737	      0.00000000	    -22.69031269	      3.66403193	     -2.01081076	      3.19239721	    -29.00308820	      3.69320283	     99.97949751	     98.03462385	    -17.06060005	    -30.10672033	     16.24549012	     90.23932347	     96.07990932
      0.11666670	     -4.26933283	     -1.03721437	    179.39737634	      1.92324277	      0.99823654	     -0.56045677	     17.14220189	      6.57265396	      3.44045808	     40.53735568	     10.36547843	    -20.58746168	      0.00000000	     24.31594350	      0.02883031	      2.15460428	    124.32460632	      8.28933079	     -8.88449145	      0.00000000	    -23.02622579	      4.14440018	     -2.06841459	     11.24214113	    -29.05262758	     10.61913870	     96.64332535	     97.08054567	    -22.23195201	    -28.18423029	      7.60839351	     92.56524918	     97.12311884
